<svg width="32" height="32" viewBox="0 0 32 32" fill="none" xmlns="http://www.w3.org/2000/svg">
  <path d="M16 2.667c-2.667 0-4.8.933-6.4 2.8-1.6 1.866-2.4 4.4-2.4 7.6 0 3.733 1.467 7.467 4.4 11.2 2.133 2.667 4.267 4.4 4.4 4.533.533.4 1.2.533 1.867.533.666 0 1.333-.133 1.866-.533.134-.133 2.267-1.867 4.4-4.533 2.934-3.733 4.4-7.467 4.4-11.2 0-3.2-.8-5.734-2.4-7.6-1.6-1.867-3.733-2.8-6.4-2.8zm0 16c-2.933 0-5.333-2.4-5.333-5.334 0-2.933 2.4-5.333 5.333-5.333 2.933 0 5.333 2.4 5.333 5.333 0 2.934-2.4 5.334-5.333 5.334z" fill="#FF385C"/>
</svg> 